<?xml version="1.0" standalone="no"?>
<!DOCTYPE svg PUBLIC "-//W3C//DTD SVG 20010904//EN"
 "http://www.w3.org/TR/2001/REC-SVG-20010904/DTD/svg10.dtd">
<svg version="1.0" xmlns="http://www.w3.org/2000/svg"
 width="990.000000pt" height="1154.000000pt" viewBox="0 0 990.000000 1154.000000"
 preserveAspectRatio="xMidYMid meet">

<g transform="translate(0.000000,1154.000000) scale(0.100000,-0.100000)"
fill="#000000" stroke="none">
<path d="M0 11350 c0 -104 1 -190 3 -190 20 1 114 32 132 44 18 12 25 12 29 3
3 -8 12 -3 25 13 12 14 26 31 31 38 6 6 31 12 55 12 25 0 45 4 45 9 0 4 28 11
62 14 34 3 64 10 66 16 2 6 16 11 32 11 34 0 71 19 105 52 18 19 41 28 81 33
42 5 58 12 70 31 9 13 24 24 34 24 10 0 20 7 24 15 3 9 18 15 35 15 16 0 58 7
93 16 61 16 73 16 226 -2 54 -7 64 0 35 22 -15 11 -132 13 -600 14 l-583 0 0
-190z"/>
<path d="M3897 11527 c-7 -18 2 -31 30 -45 27 -15 53 -6 53 19 0 31 -73 53
-83 26z"/>
<path d="M4095 11525 c53 -20 75 -20 49 0 -10 8 -35 14 -54 14 l-35 0 40 -14z"/>
<path d="M4560 11530 c0 -5 9 -10 19 -10 11 0 23 5 26 10 4 6 -5 10 -19 10
-14 0 -26 -4 -26 -10z"/>
<path d="M4703 11528 c2 -7 10 -13 17 -13 7 0 15 6 18 13 2 7 -5 12 -18 12
-13 0 -20 -5 -17 -12z"/>
<path d="M4807 11533 c-15 -14 -5 -30 31 -48 20 -10 49 -20 64 -22 31 -3 68
-31 68 -51 0 -7 7 -15 15 -18 8 -4 12 -10 9 -15 -3 -5 2 -9 12 -9 13 0 14 3 4
15 -17 20 -3 54 26 60 13 3 35 7 49 10 17 4 25 12 25 26 0 26 19 32 61 21 29
-7 34 -13 32 -35 -1 -21 3 -27 19 -27 12 0 38 -18 60 -41 37 -38 58 -44 58
-14 0 8 9 19 19 25 35 18 70 11 101 -20 23 -23 35 -29 57 -24 22 4 40 -3 80
-33 29 -21 52 -42 51 -48 -1 -5 1 -23 5 -39 7 -25 11 -28 38 -22 35 7 69 -8
69 -29 0 -9 10 -15 26 -15 l25 0 -20 29 c-38 53 -23 109 20 74 39 -31 129 -54
129 -33 0 14 52 33 59 22 3 -5 26 -13 51 -17 56 -9 94 -31 111 -63 12 -21 11
-26 -4 -37 -14 -10 -15 -14 -5 -18 10 -4 9 -9 -4 -17 -11 -6 -18 -23 -18 -40
0 -23 5 -30 30 -35 40 -9 50 0 50 41 0 47 12 45 71 -8 10 -10 24 -18 29 -18
17 0 11 -19 -9 -30 -11 -5 -29 -10 -40 -10 -12 0 -21 -5 -21 -11 0 -6 -8 -8
-17 -5 -14 5 -18 -1 -20 -25 -2 -30 -1 -31 29 -25 17 3 34 6 39 6 14 0 11 28
-3 33 -7 3 39 5 102 4 113 -2 115 -2 113 -24 -2 -13 1 -23 6 -23 5 0 7 -12 5
-27 -3 -16 -7 -50 -10 -78 l-6 -50 33 -1 c45 -2 120 -23 140 -40 10 -9 42 -14
92 -14 45 0 77 -4 77 -10 0 -5 -9 -10 -20 -10 -28 0 -25 -18 5 -32 19 -8 27
-22 32 -50 5 -37 42 -97 43 -70 0 20 44 14 58 -9 12 -18 19 -20 61 -14 46 6
50 5 72 -25 13 -17 36 -43 52 -57 15 -15 27 -34 27 -42 0 -9 11 -33 25 -53 14
-20 25 -46 25 -57 0 -16 10 -23 48 -33 28 -7 40 -14 29 -16 -17 -3 -16 -7 8
-32 24 -25 25 -29 11 -43 -20 -19 -20 -27 -2 -27 7 0 19 -7 26 -15 7 -9 15
-13 18 -10 3 3 10 1 16 -4 6 -5 47 -10 91 -11 106 -2 103 -2 108 18 4 16 5 16
6 0 1 -14 10 -18 35 -18 46 0 116 -61 96 -85 -19 -23 -5 -43 34 -51 20 -3 36
-7 37 -8 0 0 3 -27 5 -58 4 -48 2 -58 -10 -58 -9 0 -16 -4 -16 -10 0 -5 5 -10
10 -10 6 0 10 -8 10 -18 0 -10 5 -23 12 -30 9 -9 9 -12 -2 -12 -9 0 -5 -9 10
-25 13 -14 33 -25 44 -25 37 0 115 -28 138 -49 12 -12 25 -21 30 -21 4 0 8 -8
8 -18 0 -10 7 -27 15 -38 8 -10 15 -26 15 -35 0 -32 49 -109 68 -109 8 0 12
-6 9 -12 -7 -21 12 -48 33 -48 11 0 20 -4 20 -10 0 -5 22 -10 48 -10 42 0 51
-4 70 -30 12 -16 22 -34 22 -40 0 -5 5 -10 10 -10 6 0 10 -9 10 -21 0 -11 7
-27 15 -36 9 -8 13 -23 10 -33 -6 -19 8 -33 57 -60 19 -10 35 -28 39 -44 4
-15 24 -43 44 -62 20 -18 34 -38 30 -44 -12 -19 24 -57 56 -58 17 0 42 -9 57
-18 28 -18 92 -82 92 -93 1 -3 16 -18 36 -32 51 -40 94 -98 94 -129 0 -15 7
-33 15 -40 8 -7 15 -25 15 -40 0 -16 7 -30 16 -34 10 -4 14 -16 12 -36 -1 -17
2 -34 9 -38 9 -6 9 -18 1 -51 -11 -42 -10 -45 15 -67 15 -13 27 -33 27 -46 0
-17 11 -28 40 -41 23 -11 40 -26 40 -35 0 -9 11 -37 25 -61 14 -23 25 -55 25
-70 0 -29 39 -71 66 -71 9 0 15 -3 11 -6 -3 -4 1 -20 9 -36 8 -16 12 -33 9
-38 -8 -12 32 -61 73 -89 17 -12 20 -22 16 -55 -5 -35 -2 -46 21 -71 52 -59
58 -72 51 -120 -4 -25 -11 -45 -17 -45 -5 0 -9 -9 -9 -20 0 -11 7 -20 15 -20
11 0 15 -11 15 -40 0 -28 4 -40 14 -40 8 0 17 -14 21 -30 4 -17 22 -53 41 -80
19 -28 31 -50 27 -50 -4 0 -2 -5 5 -12 7 -7 12 -19 12 -28 0 -18 37 -57 72
-74 33 -17 36 -46 4 -46 l-24 0 20 -23 c35 -39 58 -116 58 -194 0 -43 5 -75
11 -79 8 -5 10 -34 6 -96 -4 -60 -2 -99 7 -121 8 -22 10 -62 7 -126 -5 -80 -3
-97 12 -120 15 -21 17 -39 13 -98 -5 -58 -3 -75 10 -85 43 -36 54 -50 54 -73
0 -14 5 -25 10 -25 6 0 10 -15 10 -34 0 -38 18 -79 49 -107 12 -11 21 -28 21
-38 0 -11 6 -21 14 -24 14 -5 24 55 27 162 2 45 2 45 9 -14 4 -33 8 -96 9
-141 1 -109 12 -204 22 -204 5 0 9 1303 9 2920 l0 2920 -2445 0 c-2077 0
-2445 -2 -2445 -14 0 -30 -54 -34 -90 -6 -24 19 -99 28 -113 13z m551 -40 c-3
-32 -32 -43 -42 -16 -5 11 -1 22 10 30 27 20 36 16 32 -14z m4499 -5375 c-3
-7 -5 -2 -5 12 0 14 2 19 5 13 2 -7 2 -19 0 -25z"/>
<path d="M880 11460 c0 -5 5 -10 10 -10 6 0 10 5 10 10 0 6 -4 10 -10 10 -5 0
-10 -4 -10 -10z"/>
<path d="M4499 11423 c20 -57 37 -65 46 -22 6 27 3 36 -15 51 -40 32 -50 23
-31 -29z"/>
<path d="M4880 11376 c0 -9 7 -16 16 -16 9 0 14 5 12 12 -6 18 -28 21 -28 4z"/>
<path d="M4166 11372 c6 -4 13 -15 17 -24 7 -19 32 -24 42 -9 6 11 -33 41 -55
41 -9 0 -11 -3 -4 -8z"/>
<path d="M4415 11351 c-7 -12 12 -24 25 -16 11 7 4 25 -10 25 -5 0 -11 -4 -15
-9z"/>
<path d="M4337 11324 c-10 -11 3 -24 24 -24 23 0 25 15 3 24 -19 7 -19 7 -27
0z"/>
<path d="M5498 11283 c-38 -6 -35 -19 7 -33 28 -9 39 -9 51 1 14 12 14 14 -2
26 -10 7 -20 12 -23 12 -3 -1 -18 -4 -33 -6z"/>
<path d="M4390 11200 c0 -11 6 -22 13 -27 19 -12 81 -33 85 -28 7 7 -28 37
-64 55 -33 17 -34 17 -34 0z"/>
<path d="M5920 11194 c0 -12 -42 -34 -65 -34 -8 0 -15 -4 -15 -10 0 -5 18 -10
40 -10 22 0 40 5 40 10 0 6 5 10 11 10 6 0 9 -7 5 -15 -3 -10 3 -17 19 -21 14
-3 25 -10 25 -15 0 -5 5 -9 10 -9 6 0 10 22 10 49 l0 49 -40 4 c-25 2 -40 -1
-40 -8z"/>
<path d="M4300 11195 c0 -15 34 -55 46 -55 21 0 17 21 -6 27 -11 3 -20 12 -20
19 0 8 -4 14 -10 14 -5 0 -10 -2 -10 -5z"/>
<path d="M4221 11176 c-11 -13 -11 -20 -3 -28 15 -15 24 -5 20 23 -3 21 -4 21
-17 5z"/>
<path d="M4590 11121 c0 -10 30 -24 37 -17 3 3 2 9 -2 15 -8 13 -35 15 -35 2z"/>
<path d="M4248 11073 c-2 -21 -10 -29 -35 -35 -35 -9 -41 -25 -22 -60 19 -35
-9 -39 -56 -7 -59 40 -79 39 -71 -3 8 -41 8 -48 3 -73 -5 -27 -37 -33 -37 -6
0 30 -20 36 -36 12 -16 -22 -48 -28 -60 -10 -4 8 -9 8 -17 0 -6 -6 -19 -11
-29 -11 -15 0 -18 -7 -16 -42 3 -43 3 -43 -29 -40 -18 2 -33 -1 -33 -6 0 -6
-19 -13 -42 -17 -30 -5 -55 -18 -80 -42 -28 -27 -47 -36 -83 -41 -26 -2 -49
-11 -52 -18 -9 -24 -102 -64 -149 -64 -24 0 -44 -4 -44 -8 0 -11 -45 -32 -69
-32 -12 0 -21 -11 -27 -31 -5 -18 -16 -35 -24 -39 -8 -4 -33 -16 -55 -26 -41
-19 -84 -60 -85 -80 0 -6 -9 -19 -20 -29 -15 -14 -23 -16 -31 -8 -21 21 -38 2
-49 -54 -8 -38 -21 -64 -40 -82 -16 -15 -30 -42 -34 -62 -4 -21 -13 -42 -21
-49 -8 -7 -15 -20 -15 -29 0 -10 -14 -24 -32 -32 -27 -11 -34 -20 -36 -49 -2
-19 -9 -49 -17 -65 -11 -24 -12 -53 -6 -130 6 -78 5 -103 -6 -116 -7 -8 -13
-32 -13 -52 0 -26 -6 -39 -20 -47 -17 -9 -19 -17 -14 -69 6 -54 5 -61 -19 -81
-20 -17 -25 -31 -25 -64 1 -23 -6 -53 -15 -66 -16 -26 -18 -136 -2 -173 4 -9
1 -34 -7 -55 -11 -28 -13 -54 -6 -107 4 -38 12 -108 18 -155 20 -172 46 -287
89 -385 18 -40 39 -111 51 -170 7 -33 19 -73 27 -89 8 -15 17 -58 19 -95 3
-36 10 -86 16 -111 6 -25 16 -81 24 -125 7 -44 16 -92 19 -108 8 -31 -8 -57
-36 -57 -22 0 -49 -37 -49 -68 0 -14 20 -57 44 -97 40 -66 47 -88 70 -212 19
-104 25 -172 25 -278 0 -77 3 -174 6 -215 3 -41 8 -100 10 -130 5 -70 21 -167
33 -205 6 -16 17 -66 26 -110 17 -83 39 -155 74 -240 11 -27 36 -97 55 -155
63 -190 110 -315 123 -331 8 -8 14 -25 14 -38 0 -12 25 -63 55 -113 30 -50 55
-99 55 -109 0 -11 13 -48 30 -82 17 -35 30 -70 30 -78 0 -8 4 -19 8 -24 4 -6
14 -28 21 -50 8 -22 29 -59 47 -82 19 -23 34 -49 34 -57 0 -9 11 -21 25 -26
57 -22 105 -60 105 -85 0 -13 -5 -27 -10 -30 -6 -4 0 -18 15 -37 14 -16 25
-35 25 -43 0 -7 7 -18 15 -25 9 -8 15 -30 15 -57 0 -37 5 -48 29 -69 17 -14
33 -35 37 -47 3 -12 19 -49 35 -82 16 -33 33 -82 38 -108 11 -58 18 -68 27
-33 9 39 24 21 24 -30 0 -28 4 -44 13 -44 13 0 42 -29 75 -76 19 -27 20 -33 7
-44 -8 -6 -17 -21 -21 -33 -6 -20 -41 -75 -55 -87 -8 -7 -27 -63 -28 -80 0
-24 -25 -113 -37 -135 -33 -59 -22 -91 25 -78 15 4 21 1 21 -10 0 -9 -5 -19
-11 -22 -17 -11 -5 -40 15 -40 15 0 23 -12 33 -50 7 -27 13 -67 13 -88 0 -34
-4 -40 -30 -50 -26 -10 -30 -17 -30 -47 0 -22 7 -43 18 -53 36 -35 129 -105
175 -131 26 -15 47 -30 47 -34 0 -17 47 -59 73 -66 15 -3 27 -13 27 -21 0 -12
-7 -11 -35 5 -22 12 -54 20 -85 20 -48 0 -74 8 -175 57 -79 37 -145 108 -145
155 0 29 -33 26 -100 -9 -58 -31 -151 -95 -189 -131 -18 -17 -128 -92 -136
-92 -3 0 -60 -42 -128 -92 -128 -97 -243 -199 -290 -258 -16 -19 -61 -69 -100
-111 -40 -41 -89 -97 -111 -123 -21 -26 -63 -64 -94 -83 -30 -19 -87 -66 -126
-103 -39 -37 -100 -91 -135 -121 -36 -29 -151 -138 -258 -243 -106 -104 -201
-194 -210 -199 -89 -47 -185 -129 -420 -361 -156 -153 -192 -177 -320 -209
-57 -14 -116 -36 -131 -47 -16 -12 -35 -22 -43 -24 -24 -3 -44 -20 -59 -51
-14 -28 -60 -77 -112 -118 -24 -20 -27 -20 -213 -1 -33 3 -63 10 -66 16 -8 12
-152 -17 -157 -32 -2 -5 -11 -10 -21 -10 -9 0 -24 -9 -34 -20 -9 -11 -25 -20
-35 -20 -12 0 -21 -11 -27 -32 -7 -23 -22 -39 -47 -53 -21 -11 -47 -33 -60
-50 -29 -39 -38 -45 -70 -45 -16 0 -28 -4 -28 -10 0 -13 -117 -13 -125 0 -3 6
-13 10 -21 10 -12 0 -14 -56 -14 -380 l0 -380 1690 0 1690 0 0 118 c1 130 12
258 34 402 8 52 18 118 21 145 9 75 45 265 57 303 5 19 18 70 28 115 10 45 23
96 29 112 26 69 121 355 121 364 0 5 11 31 24 58 13 26 43 107 66 178 46 145
64 196 87 240 8 17 25 57 38 90 12 33 39 92 59 130 20 39 36 73 36 76 0 10
103 185 138 234 31 44 35 47 68 41 21 -4 34 -3 34 4 0 5 6 10 13 10 8 0 24 11
37 25 30 32 50 18 50 -34 0 -75 42 -81 98 -13 37 45 40 52 51 150 6 60 18 113
27 127 9 14 38 32 66 42 28 10 60 27 72 39 44 43 103 73 169 87 81 17 85 13
64 -61 -13 -43 -58 -128 -76 -142 -4 -3 -22 -25 -41 -50 -19 -25 -45 -56 -57
-70 -13 -14 -23 -28 -23 -31 0 -6 -24 -36 -64 -79 -13 -14 -44 -36 -68 -48
-52 -27 -98 -65 -98 -81 0 -6 -6 -11 -13 -11 -19 0 -52 -64 -43 -85 5 -14 13
-16 39 -10 17 4 64 8 102 9 61 2 75 6 114 34 24 17 54 46 66 62 34 47 212 245
279 311 32 32 62 56 67 53 5 -3 7 -10 4 -15 -4 -5 1 -12 9 -15 10 -4 31 7 56
30 126 114 59 -36 -303 -674 -31 -55 -77 -138 -117 -215 -59 -112 -140 -256
-176 -313 -19 -29 -34 -54 -34 -56 0 -2 -32 -58 -71 -123 -40 -65 -92 -156
-117 -203 -43 -80 -83 -146 -149 -249 -15 -24 -38 -61 -49 -82 -12 -21 -49
-75 -83 -119 -34 -45 -68 -95 -77 -112 -9 -17 -33 -55 -55 -87 -21 -31 -39
-61 -39 -68 0 -7 -13 -27 -28 -45 -16 -18 -42 -58 -58 -88 -17 -30 -35 -64
-41 -75 -12 -19 -49 -103 -88 -192 -10 -24 -22 -43 -27 -43 -4 0 -8 -10 -8
-22 0 -12 -12 -35 -27 -50 l-27 -28 3177 0 3177 0 0 2545 c0 1466 -4 2545 -9
2545 -15 0 -22 -115 -21 -355 2 -286 3 -265 -15 -265 -12 0 -14 17 -14 92 0
57 -4 94 -10 96 -6 2 -11 20 -12 40 l-1 37 -15 -35 c-10 -24 -11 -36 -4 -38 7
-2 1 -16 -14 -34 -14 -16 -25 -38 -25 -48 0 -10 -7 -20 -15 -24 -19 -7 -20
-56 -1 -56 8 0 17 10 19 22 l4 23 2 -22 c0 -12 -8 -31 -19 -41 -19 -18 -19
-52 -1 -52 4 0 4 -26 0 -57 -14 -102 -13 -321 1 -338 11 -13 8 -15 -20 -15
-28 0 -31 -2 -20 -15 10 -12 10 -21 2 -40 -7 -14 -16 -25 -22 -25 -5 0 -10 -9
-10 -19 0 -11 -4 -23 -10 -26 -5 -3 -10 -14 -10 -24 0 -17 -41 -53 -89 -78
-13 -7 -52 -13 -87 -13 -36 0 -66 -5 -70 -11 -12 -19 -167 -4 -222 22 -67 31
-132 63 -167 83 -16 9 -64 32 -105 52 -41 19 -106 53 -145 75 -38 22 -110 61
-160 87 -49 25 -106 55 -125 67 -19 12 -84 48 -145 79 -95 50 -146 82 -190
119 -52 44 -234 166 -285 192 -53 27 -72 43 -98 85 -18 28 -32 55 -32 60 0 5
-25 37 -56 72 -30 34 -81 101 -111 148 -31 47 -68 103 -83 125 -35 52 -116
203 -125 235 -20 69 -90 130 -148 130 -33 0 -39 -11 -26 -48 24 -70 -17 -119
-422 -507 -144 -138 -469 -477 -586 -610 -39 -44 -118 -145 -177 -225 -58 -80
-114 -154 -124 -165 -71 -81 -408 -563 -526 -752 -14 -24 -32 -43 -39 -43 -7
0 -51 39 -98 87 -81 83 -121 129 -229 268 -58 74 -222 221 -277 248 -24 12
-43 24 -43 27 0 9 127 90 142 90 8 0 18 4 23 9 15 13 130 50 162 53 15 1 38
-2 50 -6 15 -5 34 1 62 19 22 14 52 25 65 25 14 0 32 7 41 16 12 13 19 14 28
5 19 -19 47 -12 57 14 8 20 14 24 33 20 20 -5 26 -1 36 22 12 30 81 69 131 75
17 2 26 10 28 26 2 12 8 22 14 22 6 0 21 11 34 25 14 16 34 25 52 25 23 0 31
5 36 24 8 31 34 41 57 20 16 -14 18 -14 27 3 5 10 13 33 17 51 3 18 15 37 26
43 11 5 17 14 14 20 -7 11 32 69 47 69 21 0 118 111 118 135 0 22 44 75 62 75
4 0 22 25 39 56 18 30 45 65 61 77 16 12 26 27 24 34 -6 15 104 105 121 99 6
-3 21 10 33 27 12 18 37 43 55 57 17 13 36 31 41 40 45 79 63 102 227 274 45
46 67 94 67 143 0 37 24 93 41 93 5 0 15 14 20 30 6 17 17 30 24 30 21 0 22
17 7 93 -13 65 -13 71 3 83 13 10 16 21 11 48 -8 44 -26 48 -26 6 0 -19 -7
-33 -21 -40 -11 -7 -22 -10 -24 -8 -9 9 32 107 48 111 20 6 23 50 6 94 -6 15
-12 87 -13 158 -3 145 -14 245 -28 245 -4 0 -17 -5 -28 -12 -23 -15 -26 -13
-33 34 -7 46 16 59 43 26 14 -18 21 -20 30 -11 18 16 3 91 -20 103 -15 8 -20
24 -22 67 -2 31 -8 58 -15 60 -15 5 -62 -46 -70 -77 -3 -14 -12 -36 -20 -49
-10 -16 -13 -36 -9 -61 3 -21 3 -46 0 -55 -6 -14 -8 -14 -24 0 -16 15 -18 13
-24 -15 -11 -55 -24 -22 -24 59 1 115 -15 132 -52 54 -21 -44 -23 -46 -36 -28
-12 16 -14 16 -14 2 0 -9 -11 -28 -25 -43 -29 -31 -31 -40 -9 -48 22 -8 15
-62 -7 -58 -18 3 -39 -43 -39 -84 0 -13 -4 -24 -10 -24 -5 0 -12 -15 -15 -33
-6 -30 -9 -33 -35 -29 -24 3 -30 0 -35 -21 -4 -14 -4 -31 0 -36 3 -7 -2 -11
-14 -11 -18 0 -21 -6 -21 -43 0 -48 -27 -84 -54 -74 -10 4 -21 -10 -37 -49
-17 -41 -27 -53 -38 -48 -43 18 -83 15 -103 -8 -18 -21 -18 -23 -3 -34 13 -10
14 -17 6 -33 -7 -12 -17 -18 -26 -15 -21 9 -43 -12 -50 -48 -6 -26 -10 -29
-34 -24 -14 4 -42 11 -61 15 -19 5 -39 9 -45 11 -22 5 -33 -1 -38 -21 -4 -16
0 -23 14 -26 15 -4 19 -11 15 -27 -3 -11 -6 -24 -6 -27 0 -10 -51 -30 -61 -24
-5 4 -9 19 -9 35 0 39 -16 79 -36 87 -10 4 -24 -4 -39 -21 -23 -26 -24 -27
-34 -8 -7 14 -17 18 -31 15 -15 -4 -20 0 -20 16 0 12 6 21 14 21 20 0 26 12
19 39 -8 30 -38 23 -38 -9 0 -15 -7 -26 -16 -28 -21 -4 -52 26 -45 44 3 7 1
16 -5 20 -6 3 -14 17 -19 30 -5 13 -17 24 -25 24 -18 0 -15 -21 11 -74 23 -47
18 -61 -12 -37 -15 12 -31 21 -36 21 -16 0 -34 24 -42 53 -8 34 -46 51 -62 29
-12 -17 -18 -10 -28 33 -8 32 -21 45 -48 45 -22 0 -24 -26 -3 -34 8 -3 15 -10
15 -16 0 -15 -26 -12 -44 5 -8 8 -24 15 -35 15 -12 0 -21 6 -21 15 0 9 -12 18
-30 22 -20 4 -36 16 -46 34 -16 33 -34 38 -34 11 0 -33 -12 -32 -45 4 -28 29
-37 33 -64 28 -20 -4 -31 -2 -31 5 0 7 -15 9 -43 5 -33 -5 -47 -2 -60 11 -36
35 -9 73 63 87 92 18 118 26 157 51 38 24 73 62 73 78 0 4 -18 27 -40 51 l-41
43 -102 3 c-60 2 -115 9 -133 17 -16 8 -40 11 -53 8 -25 -6 -83 8 -149 38 -23
10 -51 19 -62 19 -30 0 -105 79 -120 127 -13 44 -8 93 23 193 6 20 10 96 8
175 -6 386 -7 380 51 494 10 20 18 47 18 62 0 15 4 39 10 53 6 16 6 27 0 31
-10 6 -14 45 -5 45 37 0 110 -61 151 -125 10 -16 37 -49 59 -71 22 -23 56 -61
75 -84 23 -28 59 -54 109 -79 41 -20 88 -49 104 -64 17 -16 53 -44 81 -62 29
-18 58 -40 65 -48 7 -9 33 -27 59 -40 l47 -24 75 24 c41 13 95 28 119 34 57
13 128 55 136 80 4 11 1 27 -7 36 -7 9 -13 19 -13 22 0 3 -17 4 -37 3 -30 -3
-38 0 -38 12 0 9 11 22 25 28 14 6 25 15 25 19 0 17 -20 18 -74 2 -37 -11 -60
-13 -67 -6 -9 9 11 20 100 54 54 20 77 49 85 102 7 48 8 48 27 31 13 -12 16
-21 9 -28 -20 -20 -10 -28 28 -21 20 4 82 8 137 9 55 1 108 6 117 11 9 6 30
29 47 52 40 55 46 144 12 191 -22 32 -66 48 -100 37 -11 -3 -29 -2 -39 4 -11
6 -68 13 -127 16 -139 7 -216 39 -152 64 52 21 165 51 189 51 33 0 41 12 24
35 -9 13 -33 19 -97 24 -73 5 -84 9 -88 26 -4 26 -21 36 -49 28 -12 -3 -29 0
-37 7 -8 6 -33 10 -57 8 -36 -2 -43 0 -40 15 2 11 -4 17 -18 17 -13 0 -20 -7
-20 -20 0 -11 -7 -20 -15 -20 -8 0 -25 -11 -37 -25 -13 -15 -32 -25 -49 -25
-15 0 -31 -4 -34 -10 -3 -5 -16 -10 -29 -10 -25 0 -51 -25 -85 -83 -14 -23
-32 -39 -49 -43 -15 -3 -55 -12 -89 -20 -74 -17 -125 -18 -140 -3 -6 6 -35 19
-65 29 -49 16 -53 19 -56 51 l-3 34 -69 -3 c-59 -3 -74 -8 -99 -31 -22 -21
-28 -33 -24 -54 8 -42 -13 -32 -48 22 -32 48 -51 55 -63 25 -3 -9 1 -29 10
-46 13 -26 14 -33 2 -44 -11 -11 -23 -9 -72 16 -32 17 -64 30 -70 30 -17 0
-162 144 -181 179 -18 36 -38 62 -77 101 -43 45 -60 88 -66 172 -4 69 -2 81
15 101 11 12 23 29 26 38 3 11 22 18 60 22 53 5 88 22 145 71 12 11 22 16 22
12 0 -3 24 12 54 34 43 33 56 49 65 84 10 42 38 66 77 66 14 0 63 30 92 58 40
36 81 60 112 65 114 17 211 40 256 62 28 14 55 25 59 25 5 0 34 22 64 48 73
63 122 92 155 92 14 0 47 15 73 33 27 19 56 37 66 40 12 4 17 17 17 41 0 46
18 55 45 25 19 -23 23 -24 53 -12 18 7 32 20 32 28 0 19 41 29 85 21 28 -6 35
-4 35 9 0 8 5 15 10 15 6 0 10 -4 10 -10 0 -16 56 -12 88 7 28 16 31 16 106
-18 66 -29 79 -39 95 -74 10 -22 33 -57 50 -78 16 -21 33 -47 36 -58 4 -10 19
-32 36 -48 18 -18 29 -40 29 -57 0 -18 12 -38 35 -60 19 -18 35 -35 35 -38 0
-3 11 -17 25 -32 14 -15 25 -36 25 -46 0 -14 5 -18 19 -13 23 7 53 -4 45 -17
-4 -6 -22 -7 -42 -3 -35 7 -35 6 -20 -17 8 -13 42 -45 74 -71 32 -26 61 -53
63 -60 2 -7 12 -23 21 -37 9 -14 20 -42 23 -63 6 -40 47 -97 79 -109 10 -4 21
-16 24 -25 3 -10 14 -36 25 -59 10 -23 19 -46 19 -53 0 -6 4 -11 8 -11 16 0
42 -75 58 -170 27 -159 31 -181 57 -300 14 -63 31 -171 37 -239 13 -158 17
-173 41 -166 24 8 63 -68 49 -95 -10 -19 7 -140 20 -140 4 0 15 9 25 20 14 15
15 23 6 34 -6 8 -16 43 -22 78 -6 34 -14 67 -20 73 -5 5 -9 27 -10 50 0 49
-20 143 -36 171 -22 38 -28 195 -10 250 9 27 19 69 22 93 9 56 40 108 75 126
15 8 47 38 71 66 l43 52 -1 126 c0 69 -4 143 -8 163 -4 20 -3 44 2 53 6 9 4
59 -4 128 -8 62 -11 137 -7 167 6 57 17 303 15 355 -1 17 -1 64 0 105 0 41 -5
88 -11 104 -9 23 -7 39 6 77 17 46 17 49 -6 120 -13 41 -29 81 -37 90 -17 21
-17 48 2 55 29 12 6 129 -36 183 -11 13 -19 34 -19 46 0 13 -7 26 -15 29 -9 3
-22 21 -30 39 -8 19 -21 39 -29 47 -9 7 -16 20 -16 30 0 10 -9 43 -21 73 -17
43 -27 57 -48 62 -30 8 -61 33 -61 50 0 7 -24 38 -53 69 -42 44 -60 56 -83 56
-34 0 -54 16 -54 42 0 10 -12 25 -27 35 -16 10 -32 23 -36 30 -4 7 -16 13 -26
13 -10 0 -24 7 -31 15 -7 8 -25 15 -39 15 -40 0 -65 22 -56 49 6 20 11 22 46
16 24 -4 39 -3 39 3 0 14 -23 19 -99 21 -70 3 -130 33 -111 56 13 15 -32 40
-56 31 -30 -11 -84 4 -84 25 0 27 -17 32 -24 6 -6 -20 -7 -21 -17 -4 -29 50
-58 69 -104 69 -37 1 -52 7 -74 29 -15 15 -39 29 -52 31 -18 2 -24 9 -24 28 0
37 -13 51 -41 44 -19 -5 -24 -2 -24 14 0 26 -19 32 -101 33 -83 1 -99 6 -99
30 0 12 -7 19 -19 19 -23 0 -36 -16 -21 -25 5 -3 9 -18 9 -33 -1 -21 -2 -23
-6 -7 -3 11 -11 24 -19 28 -8 4 -14 12 -14 17 0 15 -51 61 -61 55 -12 -8 -12
-35 1 -35 6 0 10 -4 10 -10 0 -5 -7 -7 -15 -4 -8 4 -15 12 -15 19 0 8 -7 21
-16 30 -13 12 -14 19 -5 28 16 16 14 27 -5 27 -9 0 -18 -9 -21 -20 -3 -10 -14
-22 -24 -25 -10 -4 -22 -17 -25 -31 l-6 -24 -23 22 c-62 62 -86 70 -147 54
-17 -5 -34 -2 -50 8 -21 14 -27 14 -44 1 -10 -8 -29 -15 -41 -15 -18 0 -23 6
-23 26 0 23 -3 25 -27 20 -21 -5 -24 -4 -13 4 13 9 12 12 -5 26 -18 13 -21 13
-31 -1 -6 -8 -21 -15 -32 -15 -12 0 -23 -9 -27 -20 -7 -22 -34 -20 -64 4 -20
15 -51 8 -73 -17 l-19 -22 6 23 c9 32 -25 29 -64 -7 -28 -26 -32 -27 -44 -12
-18 20 -37 57 -37 70 0 6 18 11 40 11 22 0 40 5 40 10 0 6 -6 10 -13 10 -8 0
-24 11 -37 25 -30 32 -38 31 -42 -2z m213 -148 c-1 -15 -24 -12 -29 3 -3 9 2
13 12 10 10 -1 17 -7 17 -13z m259 -13 c0 -13 -12 -22 -22 -16 -10 6 -1 24 13
24 5 0 9 -4 9 -8z m-790 -72 c0 -5 -2 -10 -4 -10 -3 0 -8 5 -11 10 -3 6 -1 10
4 10 6 0 11 -4 11 -10z m2030 -349 c0 -14 -28 -33 -40 -26 -20 12 -10 35 15
35 14 0 25 -4 25 -9z m-747 -1416 c-7 -21 -13 -19 -13 6 0 11 4 18 10 14 5 -3
7 -12 3 -20z m1010 -482 c2 -5 7 -21 11 -38 l7 -30 -27 26 c-14 15 -23 32 -20
38 8 13 23 14 29 4z m-2606 -827 c40 -3 85 -12 102 -20 16 -9 35 -16 41 -16 6
0 27 -8 48 -17 20 -9 51 -20 67 -23 24 -4 30 -10 30 -30 0 -30 -24 -29 -66 1
-31 22 -75 25 -82 7 -3 -10 -13 -10 -48 0 -24 7 -58 13 -75 12 -17 0 -46 10
-67 24 -22 15 -44 22 -56 19 -12 -3 -21 -2 -21 3 0 12 42 54 50 49 3 -2 38 -6
77 -9z m1786 -323 c-7 -2 -19 -2 -25 0 -7 3 -2 5 12 5 14 0 19 -2 13 -5z
m-2361 -473 c3 -16 1 -35 -4 -42 -4 -8 -8 4 -8 30 0 49 6 55 12 12z m650 -180
c25 0 11 -36 -15 -37 -12 -1 -33 5 -46 14 -19 12 -21 17 -10 24 8 5 23 7 34 4
11 -2 27 -5 37 -5z m151 -9 c34 -8 107 -77 107 -102 0 -10 10 -24 23 -30 12
-6 23 -13 25 -14 1 -1 -2 -15 -8 -30 -7 -19 -7 -31 0 -40 8 -10 8 -15 0 -20
-7 -4 -9 -18 -5 -32 3 -15 0 -34 -8 -47 -8 -11 -17 -37 -20 -56 -13 -77 -18
-106 -23 -127 -3 -14 -18 -28 -39 -37 -37 -16 -150 -24 -162 -12 -12 12 -35
80 -42 128 -5 33 -15 53 -33 67 -17 14 -27 34 -31 63 -4 24 -7 52 -9 63 -2 10
-11 27 -20 37 -20 20 -26 108 -8 108 6 0 10 -5 10 -11 0 -6 10 -9 23 -7 15 2
23 11 25 29 4 36 56 46 77 16 8 -12 20 -17 29 -14 20 8 21 47 2 47 -7 0 -19 7
-26 15 -11 13 -6 15 36 14 27 -1 61 -4 77 -8z m864 -743 c-3 -8 -6 -5 -6 6 -1
11 2 17 5 13 3 -3 4 -12 1 -19z m0 -40 c-3 -8 -6 -5 -6 6 -1 11 2 17 5 13 3
-3 4 -12 1 -19z m153 -83 c0 -8 -4 -15 -10 -15 -5 0 -10 7 -10 15 0 8 5 15 10
15 6 0 10 -7 10 -15z m187 -42 c9 -23 -6 -27 -27 -8 -11 10 -20 21 -20 26 0
12 41 -3 47 -18z m-407 -162 c66 -23 80 -51 26 -51 -62 0 -123 39 -99 63 9 10
12 9 73 -12z m323 -260 c-12 -12 -38 -17 -97 -18 -60 -2 -74 0 -53 7 16 5 34
13 40 18 17 14 45 18 89 14 35 -4 36 -5 21 -21z m317 -389 c10 -5 16 -25 19
-56 3 -46 -8 -81 -35 -116 -6 -8 -15 -37 -18 -63 -6 -42 -9 -47 -23 -36 -12
11 -18 9 -35 -11 -13 -17 -21 -21 -25 -12 -2 6 -11 12 -19 12 -8 0 -14 10 -14
26 0 20 -4 25 -16 20 -9 -3 -20 -6 -25 -6 -5 0 -9 -10 -9 -22 0 -13 -4 -29 -9
-37 -7 -11 -11 -10 -19 5 -9 16 -11 16 -23 -4 -21 -33 -39 -27 -39 12 0 25 -6
38 -25 50 -20 14 -25 25 -25 61 0 25 -5 65 -12 90 -18 68 -7 79 83 86 108 8
252 9 269 1z m-293 -374 c-3 -7 -5 -2 -5 12 0 14 2 19 5 13 2 -7 2 -19 0 -25z
m-297 -1103 c0 -14 -4 -25 -10 -25 -14 0 -13 -43 2 -58 9 -9 7 -12 -11 -12
-14 0 -21 -5 -18 -12 2 -7 -9 -28 -24 -46 -32 -36 -45 -73 -34 -99 6 -15 8
-15 12 -3 15 42 73 70 73 35 0 -9 11 -21 25 -27 25 -11 27 -35 5 -63 -10 -12
6 -35 43 -58 44 -29 35 -68 -36 -149 -21 -24 -48 -55 -60 -71 -21 -26 -25 -27
-85 -21 -58 6 -64 9 -76 38 -15 35 -32 52 -61 59 -15 3 -12 5 9 6 23 1 27 4
21 19 -14 33 -17 139 -7 189 14 63 69 159 136 238 77 91 96 103 96 60z m-311
-481 c2 -2 2 -7 -2 -10 -8 -9 -47 6 -47 17 0 9 37 3 49 -7z"/>
<path d="M3827 6703 c-12 -12 -7 -43 7 -43 18 0 39 27 31 40 -7 11 -28 13 -38
3z"/>
<path d="M3720 6610 c0 -5 4 -10 9 -10 6 0 13 5 16 10 3 6 -1 10 -9 10 -9 0
-16 -4 -16 -10z"/>
<path d="M5061 4854 c0 -11 3 -14 6 -6 3 7 2 16 -1 19 -3 4 -6 -2 -5 -13z"/>
<path d="M5230 11080 c0 -12 28 -25 36 -17 3 3 -4 10 -15 17 -15 7 -21 7 -21
0z"/>
<path d="M5695 11080 c-9 -14 20 -40 44 -40 26 0 36 17 21 35 -14 17 -56 20
-65 5z"/>
<path d="M4860 11040 c0 -5 5 -10 10 -10 6 0 10 5 10 10 0 6 -4 10 -10 10 -5
0 -10 -4 -10 -10z"/>
<path d="M6395 10783 c4 -21 9 -40 11 -42 9 -10 44 34 44 56 0 19 -5 23 -31
23 -31 0 -31 -1 -24 -37z"/>
<path d="M5551 10796 c-15 -18 -6 -24 50 -32 l44 -6 -34 26 c-40 30 -44 31
-60 12z"/>
<path d="M5710 10716 c0 -2 6 -16 14 -30 13 -26 14 -26 19 -5 3 13 4 26 1 31
-5 8 -34 12 -34 4z"/>
<path d="M6025 8620 c3 -5 13 -10 21 -10 8 0 14 5 14 10 0 6 -9 10 -21 10 -11
0 -17 -4 -14 -10z"/>
<path d="M6102 8408 c7 -19 38 -22 38 -4 0 10 -9 16 -21 16 -12 0 -19 -5 -17
-12z"/>
<path d="M6921 7911 c-35 -44 -70 -117 -71 -144 0 -11 6 -31 13 -45 41 -81 87
-215 87 -255 0 -29 31 -88 42 -81 6 4 7 26 3 58 -10 69 -11 186 -1 336 12 173
-9 212 -73 131z"/>
<path d="M6811 7707 c-14 -17 -12 -62 3 -62 18 0 30 33 20 55 -9 20 -11 20
-23 7z"/>
<path d="M6716 7468 c-5 -19 -8 -20 -16 -8 -16 26 -27 -1 -33 -82 -4 -55 -2
-80 7 -85 18 -12 86 -98 86 -110 0 -5 9 -18 20 -28 11 -10 25 -33 32 -51 13
-37 32 -42 66 -18 38 26 56 73 53 134 -2 30 -8 61 -14 69 -7 8 -11 23 -9 35 2
12 -5 30 -15 41 -10 11 -25 31 -34 45 -15 23 -106 80 -128 80 -5 0 -11 -10
-15 -22z"/>
<path d="M5505 7250 c-3 -5 -1 -10 4 -10 6 0 11 5 11 10 0 6 -2 10 -4 10 -3 0
-8 -4 -11 -10z"/>
<path d="M6632 6800 c-6 -11 -12 -43 -12 -71 0 -40 3 -50 16 -47 11 2 16 20
19 71 4 70 -1 81 -23 47z"/>
<path d="M6815 6557 c-12 -29 -1 -72 18 -75 28 -6 87 7 87 19 0 5 -12 15 -27
21 -16 7 -38 21 -50 31 -20 18 -23 18 -28 4z"/>
<path d="M5817 5764 l-28 -15 18 -31 c22 -38 38 -44 58 -25 22 23 19 47 -7 47
-17 0 -19 3 -10 12 28 28 11 35 -31 12z"/>
<path d="M9880 5530 c0 -93 4 -150 10 -150 6 0 10 57 10 150 0 93 -4 150 -10
150 -6 0 -10 -57 -10 -150z"/>
<path d="M9817 4923 c-9 -8 -9 -110 -1 -152 12 -61 24 -30 24 64 0 87 -5 107
-23 88z"/>
<path d="M3777 3693 c-16 -16 -5 -53 24 -77 38 -32 79 -35 79 -5 0 34 -19 58
-57 74 -41 17 -38 17 -46 8z"/>
</g>
</svg>
